<?xml version="1.0" standalone="no"?>
<!DOCTYPE svg PUBLIC "-//W3C//DTD SVG 20010904//EN"
 "http://www.w3.org/TR/2001/REC-SVG-20010904/DTD/svg10.dtd">
<svg version="1.0" xmlns="http://www.w3.org/2000/svg"
 width="500.000000pt" height="500.000000pt" viewBox="0 0 500.000000 500.000000"
 preserveAspectRatio="xMidYMid meet">

<g transform="translate(0.000000,500.000000) scale(0.100000,-0.100000)"
fill="#000000" stroke="none">
<path d="M3264 4655 c-18 -27 -37 -165 -51 -370 -10 -138 -9 -145 27 -145 57
0 94 26 152 107 62 86 156 246 164 280 13 50 -50 95 -187 133 -91 25 -85 25
-105 -5z m131 -80 c69 -32 94 -48 89 -57 -4 -7 -43 -67 -86 -133 -44 -66 -81
-130 -84 -141 -3 -12 -17 -27 -31 -33 -22 -10 -25 -10 -19 5 15 38 28 168 30
281 0 68 2 123 3 123 1 0 45 -20 98 -45z"/>
<path d="M1005 4143 c-16 -9 -65 -45 -107 -81 -59 -49 -78 -71 -78 -90 0 -29
147 -182 217 -226 51 -31 71 -32 154 -5 88 29 96 38 81 94 -13 49 -33 82 -131
220 -83 116 -83 116 -136 88z m83 -155 c27 -40 67 -93 89 -118 l40 -44 -51
-21 -51 -21 -80 66 c-44 36 -93 74 -108 84 -16 9 -27 21 -25 26 4 11 120 99
130 100 4 0 29 -33 56 -72z"/>
<path d="M2754 4119 c-16 -5 -41 -20 -54 -34 -13 -14 -31 -25 -41 -25 -10 0
-30 -5 -44 -12 -22 -10 -32 -8 -68 13 -55 31 -153 33 -212 4 -44 -22 -85 -76
-85 -111 0 -30 -13 -30 -74 1 -28 14 -67 25 -90 25 -80 0 -169 -65 -181 -133
-6 -30 -9 -33 -39 -29 -51 6 -112 -15 -151 -53 -34 -32 -40 -33 -86 -28 -120
14 -231 -89 -205 -191 5 -19 1 -26 -14 -31 -50 -16 -73 -85 -48 -140 10 -22 8
-29 -17 -55 -16 -17 -38 -30 -49 -30 -77 -1 -159 -85 -158 -162 1 -113 11
-154 107 -458 13 -41 39 -127 58 -190 20 -63 69 -225 111 -360 41 -135 105
-342 141 -460 36 -118 79 -258 95 -310 16 -52 54 -176 84 -274 31 -99 59 -183
63 -187 17 -15 598 -462 619 -476 28 -18 31 -17 234 80 202 97 372 177 375
177 2 0 73 34 160 75 86 41 158 75 160 75 5 0 358 169 385 184 32 19 36 38 44
242 4 93 11 246 16 339 6 94 21 402 35 685 14 283 29 598 35 700 23 470 24
486 9 498 -55 47 -95 72 -115 72 -19 0 -24 5 -24 28 0 61 -68 122 -138 122
-26 0 -31 6 -46 45 -22 57 -72 101 -126 110 -34 6 -51 2 -91 -19 l-49 -25 -14
34 c-16 37 -45 60 -91 71 -16 4 -46 18 -65 31 -24 16 -49 23 -80 23 -45 0 -45
0 -63 49 -20 56 -61 96 -115 111 -43 12 -56 11 -98 -1z m113 -89 c21 -12 36
-32 43 -57 11 -37 10 -39 -28 -80 -38 -42 -82 -57 -97 -34 -3 5 -19 12 -35 16
-22 5 -30 12 -30 29 0 21 -24 64 -44 78 -6 4 0 8 13 8 13 0 39 14 58 30 39 35
75 38 120 10z m-385 -24 c21 -8 48 -24 61 -36 13 -13 39 -28 58 -34 18 -6 40
-22 47 -36 14 -24 12 -27 -28 -68 -44 -44 -60 -51 -60 -29 0 20 -41 54 -72 62
-19 5 -40 1 -65 -12 -41 -20 -83 -20 -83 2 0 7 -11 27 -25 43 -14 17 -25 34
-25 38 1 21 39 56 75 69 50 18 70 18 117 1z m-330 -127 c30 -21 59 -24 74 -9
6 6 18 8 28 4 18 -7 42 -44 28 -44 -16 0 -63 -53 -77 -86 -16 -39 -52 -48 -85
-22 -16 13 -39 18 -81 18 -33 0 -59 4 -59 10 0 6 -9 19 -21 31 l-21 21 26 38
c20 30 37 43 73 54 53 16 75 13 115 -15z m931 -18 c26 -20 44 -27 62 -23 16 3
33 -2 45 -13 28 -25 25 -32 -14 -39 -65 -12 -116 -73 -116 -138 l0 -33 -19 41
c-13 28 -30 46 -55 58 -22 10 -36 24 -36 36 0 10 -11 32 -25 48 l-24 29 22 21
c51 48 110 53 160 13z m-285 -65 c34 -5 82 -30 82 -44 0 -4 -17 -6 -39 -4 -25
3 -52 -3 -78 -17 -39 -19 -93 -73 -93 -92 0 -5 -7 -9 -15 -9 -13 0 -15 7 -9
35 4 21 1 48 -7 67 -12 29 -11 32 17 55 30 25 26 24 142 9z m-303 -16 c3 -10
22 -29 41 -40 35 -22 54 -48 54 -73 0 -20 -50 -28 -67 -11 -26 25 -78 17 -126
-20 l-44 -34 -17 34 c-9 20 -30 41 -51 51 -19 9 -35 20 -35 24 0 17 53 69 70
69 10 0 32 -8 49 -17 30 -18 31 -18 56 10 30 32 61 35 70 7z m944 -24 c12 -13
26 -40 32 -60 9 -34 8 -40 -21 -73 -17 -19 -36 -46 -42 -59 l-11 -23 -29 24
c-34 29 -92 47 -125 39 -14 -4 -32 1 -49 15 -15 12 -37 21 -49 21 -29 0 -36 9
-25 31 28 51 82 65 115 29 28 -31 54 -25 70 14 28 66 93 86 134 42z m-1549
-22 c22 -9 40 -18 40 -21 0 -3 -11 -19 -26 -35 -14 -17 -28 -44 -31 -59 -5
-25 -10 -29 -38 -29 -19 0 -40 -2 -48 -6 -10 -4 -16 5 -20 32 -3 20 -14 45
-23 55 -21 23 -12 37 40 60 50 23 56 23 106 3z m-264 -64 c32 -12 54 -39 71
-87 17 -47 -12 -95 -67 -112 -39 -12 -70 -44 -89 -94 -9 -24 -13 -25 -43 -16
-18 5 -45 7 -60 3 -24 -5 -28 -2 -34 22 -9 35 14 78 43 82 37 5 48 27 33 71
-14 44 -8 73 23 102 40 38 76 46 123 29z m1230 -1 c4 -7 22 -9 49 -5 38 6 45
4 64 -20 30 -39 35 -67 17 -103 -15 -28 -21 -31 -62 -31 -43 0 -115 -28 -129
-50 -12 -20 -25 -9 -25 21 0 34 -13 64 -43 96 l-20 22 40 41 c41 40 93 55 109
29z m-772 -25 c19 -22 29 -25 53 -20 93 23 112 17 143 -44 l20 -39 -25 -25
c-14 -14 -25 -32 -25 -40 0 -8 -9 -18 -20 -21 -32 -10 -82 -56 -96 -90 l-12
-30 -10 26 c-11 28 -57 69 -78 69 -7 0 -18 15 -24 34 -6 19 -29 51 -50 70 -34
31 -38 39 -31 60 6 13 22 33 38 43 57 40 84 42 117 7z m1549 -53 c10 -10 24
-35 32 -57 10 -30 19 -40 38 -42 14 -2 31 -9 37 -17 9 -10 -3 -18 -57 -36 -37
-12 -130 -43 -205 -70 l-138 -47 0 33 c0 43 22 65 66 65 29 0 35 4 40 28 18
85 47 131 96 155 36 18 63 14 91 -12z m-1081 -1 c59 -11 101 -33 127 -66 31
-40 27 -69 -13 -94 -41 -25 -76 -91 -76 -143 0 -20 -4 -37 -10 -37 -5 0 -10
13 -10 29 0 63 -74 130 -146 133 -23 1 -56 13 -82 29 -47 30 -44 39 18 49 32
5 35 8 38 42 4 47 44 83 82 73 14 -3 46 -10 72 -15z m602 -35 c24 -26 50 -31
75 -16 18 12 70 -4 95 -29 20 -20 20 -20 -9 -51 -27 -27 -30 -37 -29 -93 l1
-63 -54 -17 c-54 -17 -73 -15 -73 9 0 14 -65 75 -80 75 -6 0 -10 13 -10 29 0
16 -11 42 -24 58 -28 34 -22 57 24 96 39 33 55 34 84 2z m-1268 -49 c13 -9 37
-37 55 -63 17 -27 45 -57 62 -68 41 -27 44 -41 10 -50 -15 -3 -44 -19 -63 -33
-37 -28 -38 -29 -70 -31 -11 0 -37 -17 -59 -36 -50 -45 -90 -47 -138 -5 -19
17 -48 33 -64 37 -22 4 -30 12 -34 37 -13 67 32 126 95 126 24 0 42 5 44 13
15 55 25 73 46 85 29 15 82 9 116 -12z m1067 -75 c13 -5 35 -27 48 -48 12 -21
38 -55 56 -76 19 -21 33 -46 31 -54 -2 -11 -51 -33 -154 -68 l-151 -52 -31 29
c-18 15 -41 28 -51 28 -33 0 -51 28 -51 80 0 88 78 142 132 93 25 -22 51 -7
58 32 7 40 59 56 113 36z m-629 -72 c32 -27 39 -30 80 -24 40 6 48 4 70 -18
27 -27 35 -72 14 -80 -7 -3 -34 -2 -60 1 -57 6 -100 -10 -131 -49 -17 -22 -28
-26 -49 -22 -25 5 -28 9 -28 48 0 31 -7 52 -24 72 -23 28 -23 29 -6 51 20 24
67 52 87 52 7 0 28 -14 47 -31z m-841 -80 c14 -6 31 -22 38 -36 7 -14 35 -36
61 -49 26 -13 48 -29 48 -34 0 -6 -21 -10 -46 -10 -25 0 -55 -5 -67 -11 -42
-22 -87 -73 -93 -106 -3 -18 -11 -33 -17 -33 -6 0 -48 11 -94 25 -60 19 -87
32 -99 50 -20 31 -12 70 24 108 28 30 51 34 82 15 27 -17 52 -1 62 40 6 24 16
34 41 41 17 5 33 10 34 10 1 1 13 -4 26 -10z m654 -35 c21 -21 24 -32 20 -62
-7 -39 5 -62 33 -62 10 0 33 -12 50 -27 29 -24 31 -30 26 -67 -3 -23 -6 -48
-7 -56 0 -11 -51 -32 -166 -71 l-166 -56 -101 29 c-56 17 -104 33 -109 37 -4
4 -2 21 4 38 8 24 22 36 61 53 l50 22 -6 44 c-11 83 30 140 92 128 25 -5 33
-2 48 21 37 57 128 72 171 29z m1348 -2182 l-7 -73 -96 -45 c-64 -30 -98 -41
-102 -34 -4 6 -10 82 -14 168 -3 86 -11 225 -16 307 -6 83 -19 319 -30 525
-11 206 -31 571 -44 810 -13 239 -23 435 -22 436 0 1 75 26 166 56 l165 56 3
-1067 c2 -586 0 -1099 -3 -1139z m-897 2103 c17 -14 41 -25 54 -25 24 0 67
-24 58 -33 -11 -9 -343 -118 -353 -114 -5 1 -11 33 -12 71 -2 57 1 71 18 87
27 24 51 24 93 -2 26 -16 37 -18 54 -9 11 6 20 17 20 25 0 12 13 22 32 24 3 1
20 -10 36 -24z m-828 -70 c0 -21 -5 -35 -13 -35 -24 0 -68 -52 -79 -94 l-11
-43 -91 27 c-106 32 -117 48 -66 99 35 35 79 41 125 17 34 -18 53 -11 61 20 7
26 29 43 57 44 13 0 17 -8 17 -35z m944 -127 c3 -18 15 -114 26 -213 46 -394
72 -620 96 -825 83 -717 123 -1059 130 -1130 l6 -55 -113 -53 c-61 -29 -113
-51 -114 -50 -2 2 -10 44 -18 93 -9 50 -39 218 -66 375 -27 157 -82 467 -120
690 -39 223 -78 443 -86 490 -36 190 -102 585 -100 588 3 4 337 120 347 121 4
1 9 -14 12 -31z m-1368 -53 c59 -18 57 -15 103 -180 30 -112 90 -324 207 -740
82 -288 113 -398 214 -760 45 -159 85 -302 90 -317 12 -37 3 -35 -47 10 -45
40 -38 22 -202 557 -16 55 -69 226 -117 380 -47 154 -94 307 -104 340 -10 33
-43 141 -73 240 -167 542 -154 497 -134 490 6 -2 35 -11 63 -20z m562 -211 c6
-27 41 -184 77 -349 36 -165 70 -318 75 -340 6 -22 48 -215 95 -430 164 -746
196 -890 210 -949 8 -33 13 -61 11 -63 -2 -2 -37 24 -78 57 -87 69 -68 19
-174 455 -36 149 -87 360 -114 470 -27 110 -70 286 -95 390 -25 105 -73 298
-105 430 -68 277 -100 412 -100 424 0 4 42 -4 93 -19 l92 -27 13 -49z"/>
<path d="M3915 3977 c-178 -73 -191 -87 -135 -151 30 -34 35 -36 94 -36 85 0
275 27 292 41 26 21 15 44 -54 112 -47 47 -75 67 -92 67 -14 0 -61 -15 -105
-33z m145 -99 c0 -5 -26 -8 -59 -8 -32 0 -87 -3 -122 -6 -37 -4 -61 -3 -56 2
5 5 50 23 100 41 l92 31 22 -26 c13 -15 23 -30 23 -34z"/>
<path d="M580 3331 c-58 -5 -115 -11 -127 -15 -37 -12 -37 -41 -3 -104 53 -94
78 -122 108 -122 37 1 293 82 326 104 41 26 32 62 -25 102 -54 39 -113 46
-279 35z m212 -79 c4 -4 -45 -25 -108 -47 l-115 -40 -30 35 c-58 69 -63 65 99
62 81 -2 150 -6 154 -10z"/>
</g>
</svg>
